<svg xmlns="http://www.w3.org/2000/svg" xmlns:xlink="http://www.w3.org/1999/xlink" id="Layer_1" x="0" y="0" version="1.1" viewBox="0 0 350 358" xml:space="preserve" style="enable-background:new 0 0 350 358"><style type="text/css">.st0{display:none}.st1{display:inline;fill:#020006}.st2{fill:#fff}</style><g id="layer101" class="st0"><path d="M0,179V0h175h175v179v179H175H0V179z" class="st1"/></g><g id="layer116"><path d="M160,306c-7.9-1-22.3-4.3-30.5-7.1c-10.6-3.6-14.3-6.3-23.5-17.5c-1.4-1.7-5.2-4.9-8.5-7.1 c-10.2-6.8-27.5-28-34.5-42.1c-2.1-4.2-5.7-13.1-8-19.7c-2.3-6.6-6.2-17.5-8.6-24.3c-5.2-14.6-5.7-20.5-2-24.5 c2.8-3,6.5-4.2,10.1-3.3c3.1,0.8,9.5,6.3,9.5,8.2c0,5.4,8.7,14.9,24,26.1c5.2,3.9,12.7,9.9,16.5,13.3c13.5,12.1,22.8,16.9,44.2,23 c9.3,2.6,13.7,3.2,26.2,3.8c8.3,0.4,15.1,0.5,15.1,0.2s-1.6-1.6-3.5-2.9c-6.8-4.6-12.9-13.7-14.1-20.9l-0.6-4l5.3-1.6 c7.6-2.2,8.2-2.7,6.9-6c-1.3-3.6-6.8-11.5-9.8-14.3c-1.9-1.8-2.3-2.8-1.7-5c0.3-1.6,1-4.8,1.5-7.3c0.8-3.9,0.9-3.6,0.5,2.6 c-0.3,5.7,0,7.6,1.3,9c6.1,6.7,11.2,14.9,11.2,17.8c0,1.7-4.9,4.6-9.5,5.6c-2.6,0.5-3,1-2.7,3.5c0.8,7.2,6.5,14.6,16.3,21 c9.5,6.3,15,7.8,28.4,7.9c10.9,0.1,11.1,0.1,20.6-4.2c5.5-2.5,10.9-5.6,12.6-7.5c4.4-4.6,17.3-22,17.3-23.3c0-0.6,2.5-3.1,5.5-5.4 c10.8-8.3,16.9-16,23.4-29.3l6.1-12.5v-11.3c0-16.6-3.6-27.2-11.7-35.1l-3.4-3.3l-9.7,0.1c-7.3,0.1-11.2,0.7-15.7,2.4 c-3.3,1.2-8.8,3.1-12.2,4.1c-9.6,3-13.6,10.1-7.5,13.3c2.9,1.5,3,1.4-4,3.6c-2.1,0.6-6.4,3.1-9.6,5.4c-9.4,7-20.2,9.7-22.7,5.7 c-0.3-0.6-2.3-1.1-4.4-1.1c-3,0-4.4,0.7-7.2,3.6c-4.2,4.4-7.3,5.8-10,4.4c-2.8-1.6-2.4-4.5,2-12.4c4.7-8.6,6.1-14.8,6.1-26.5 c0-21.1-9.3-33.6-27.5-37.3c-4.6-0.9-5.8-0.8-10.1,1.2c-3.9,1.8-6.9,2.3-14.7,2.4l-9.8,0.2l-4.6-3.9c-2.6-2.1-5.9-4.5-7.3-5.2 c-3.1-1.6-13-3.5-15.6-3c-1.1,0.2-3.2,0.7-4.8,1C96.9,67.3,86.7,77,81.9,84.3c-9.3,14.3-13.3,31.6-10.2,44.8 c3.4,14.8,16.1,34.1,25.8,39.2c10.2,5.3,39.7,1.8,66.1-8c4.5-1.6,6.7-1,9.5,2.3c1.3,1.6,1.1,1.7-1.9,1.1c-1.9-0.4-4.8-0.1-7,0.7 c-13.2,5-19,6.8-29.7,9.2c-15.4,3.6-22,3.5-35.5-0.5c-12.6-3.8-13.6-4.4-19.4-12c-5.3-6.9-7.1-10.7-11.5-25 c-3-9.5-3.2-11.3-2.7-19.5c0.6-10.6,2-20.8,3.2-22.8c0.4-0.7,6.2-7.1,12.8-14.1C96,64.3,99.1,62.5,109,63.3 c8.1,0.7,12.7,2.5,19.4,7.6c5,3.8,5.2,3.9,14.1,3.9c5.9,0.1,10.4-0.4,13.3-1.5c5.8-2.2,15.2-1.3,21.8,2c2.8,1.4,7.4,5.1,10.2,8.2 c7.3,8,8.4,12.4,8,31.8l-0.3,15.4l-3.3,5.4c-4.1,6.6-5.3,11.9-2.7,11.9c1,0,4-2,6.6-4.5c5.4-5.1,8.5-5.7,13.5-2.6 c4.6,2.8,10.5,1.3,18.9-4.9c2.8-2,6.4-4.4,8.1-5.3c2.6-1.4,3-2,2.6-5c-0.3-2.9,0.2-4.2,3.2-7.5c2-2.2,4.9-4.3,6.4-4.7 c1.5-0.3,6.1-1.9,10.2-3.5c8.9-3.4,21.6-5.4,27.7-4.5c11.2,1.7,19.6,15.8,21.3,35.9c1.1,13.6,0.5,16.8-6.4,31.1 c-6.7,13.8-9.4,17.5-19.8,26.5c-5.5,4.9-10.3,10.4-14.4,16.4c-3.4,5-7.3,10.4-8.8,11.9c-1.4,1.5-2.6,2.9-2.6,3s3.4,0.1,7.5-0.1 c4.1-0.2,9.2,0,11.3,0.4c3,0.7,1.3,0.9-8.3,1.4c-11.6,0.6-12.3,0.8-20,4.7c-12.9,6.7-18.7,7.9-31.4,6.5c-5.9-0.6-12.7-1.7-15.1-2.5 c-2.6-0.9-11-1.8-19.9-2.2c-15.6-0.7-20.7-1.3-31.6-3.9c-22.6-5.4-28.7-8.8-52.2-28.8c-4.3-3.7-12.1-10-17.3-14 c-9.3-7.2-16.9-16.1-17-20c0-1-1.3-3.2-2.9-5c-5.5-6.2-15.1-3.5-15.1,4.2c0,1.6,2.3,9.5,5,17.7c2.8,8.1,6.4,18.7,8,23.5 c6.1,18.2,11,27.7,20.6,39.5c10.6,13,14.7,17.3,21.5,21.8c3.8,2.7,8.3,6.7,9.9,9.1c6.1,8.7,15.3,13.5,34.5,18 c11.1,2.6,13.6,2.9,32.5,2.9c13.2,0,22.8-0.5,27-1.4c3.6-0.7,10.8-2.2,16-3.2c12.5-2.6,34.4-8.5,38.9-10.6 c10.3-4.8,16.5-10.7,23.3-22.7c4.9-8.4,5.3-9.6,5.3-15.6c0-5.2-0.5-7.4-2.7-11.2c-1.5-2.7-2.3-4.8-2-4.8c0.4,0,1.9,2,3.2,4.5 c2,3.7,2.5,5.9,2.4,11.8c0,6.7-0.3,7.8-5,16.1c-10.5,19.1-20.3,24.8-57.5,34C201.7,306.1,178.3,308.1,160,306z" class="st2"/><path d="M182,293c-18.1-3.5-35-9.5-61.5-21.8c-7.1-3.3-15.9-7.3-19.5-8.9c-3.6-1.6-8-4.2-9.8-5.7 c-1.8-1.6-9.3-12.9-17.1-26C58.9,205.2,56,200,55.4,196.2c-0.3-1.3-1.1-3.7-1.9-5.3c-2-3.8-1.9-7.3,0.3-9.2 c2.7-2.4,4.4-2.1,7.7,1.3c2.2,2.3,2.6,3.3,1.7,4.2c-0.7,0.7-1.2,2.6-1.1,4.3l0.1,3l1.4-3.2c1.3-3,3.4-4.5,3.4-2.5 c0,0.4,1.6,2.4,3.6,4.5c3.3,3.5,3.5,4.1,2.5,6.4c-0.7,1.4-0.9,2.8-0.7,3.1c0.3,0.3,0.8-0.3,1.2-1.2c0.3-0.9,0.9-1.6,1.3-1.6 c0.5,0,5.9,5.1,12.2,11.3c22.1,22,44.3,34,69.9,37.7c12.3,1.8,55.1,0.8,64-1.5c3.6-0.9,10.1-1.7,14.5-1.8l8-0.2l0.3,3.2 c0.5,4.7-1.2,6.9-7.3,9.9c-5.1,2.5-5.5,3-5.5,6.1c0,2,0.4,3.2,1,2.8c0.6-0.3,1-1.7,1-3.1c0-2.2,0.4-2.4,4.8-2.4 c2.6,0,5.3-0.5,5.9-1.1c2-2,2.3,0.8,0.3,3.3c-1.1,1.4-1.6,2.8-1.3,3.2c0.3,0.3,0.1,0.6-0.5,0.6c-0.7,0-1.2,0.5-1.2,1.2 c0,1.7,3.7-2,6.2-6.1c1.2-2,3.9-5.4,6-7.6c4-4.1,6-9,5.1-12.5c-0.4-1.5,0-2,1.5-2c1.1,0,2.3,0.8,2.6,1.8c1.1,3.8,0.9,10.1-0.3,11.6 c-0.7,0.9-1,1.6-0.5,1.6s-0.4,0.9-2,1.9c-1.7,1.1-3.3,1.8-3.6,1.6c-0.4-0.2-0.7,0.2-0.7,1c0,0.8,0.5,1.3,1.1,1.2 c0.6-0.1,1,0.6,1,1.5c-0.2,1.6,0,1.6,2.1,0c1.3-0.9,2.1-2,1.8-2.4c-0.2-0.5,0.1-0.8,0.8-0.8s1-0.3,0.6-0.6 c-0.3-0.3,0.3-1.4,1.4-2.5c1-1,1.6-2.5,1.3-3.3c-0.7-1.7,5.2-8.6,7.4-8.6c1.2,0,1.4,1,0.9,5.3c-0.3,2.8-0.8,6.1-1.1,7.2 c-0.4,1.1,0.3,0.2,1.4-2c1.1-2.2,2-4.8,2-5.7c0-3.2,1.9-1.9,2.6,1.7c1.7,9.2-1.9,14.2-16.6,23.1C231.5,293.2,209.4,298.2,182,293z" class="st2"/><path d="M248.5,249.6c0-6.3,0-6.4,3.2-7.4c3.8-1.2,5.3,0,5.3,4.1c0,2.1-1.1,4-3.6,6.3c-1.9,1.9-3.9,3.4-4.2,3.4 C248.8,256,248.5,253.1,248.5,249.6z" class="st2"/><path d="M265.9,245.8c0-0.2-0.3-1.5-0.5-3c-0.4-2.7-0.3-2.8,3.5-2.8c2.2,0,4.3,0.5,4.6,1c0.3,0.6,0.1,1-0.5,1 c-0.7,0-2.5,0.9-4.1,2.1C267.3,245.2,266,246,265.9,245.8z" class="st2"/><path d="M217.5,232.2c-3.6-0.8-12-6.1-15.7-9.9c-3.5-3.6-7.4-10.8-8.4-15.6c-0.3-1.2-0.6-7.4-0.8-13.7 c-0.5-20.9,2-24.7,23.5-35.8c12.6-6.5,24-13.4,44.3-26.9c10.3-6.9,14.3-8,19.4-5.4c2.1,1.1,5.1,3.8,6.7,6c2.8,4.1,2.8,4.3,2.8,19.4 c0.1,9.9-0.4,16.6-1.2,19.2c-1.7,5.2-10.3,22.2-14,27.7c-5.4,8-30.9,30.6-37.6,33.3C233.3,231.8,220.9,232.9,217.5,232.2z M209.6,203.1c2.6-1.6,7.7-9.4,6.3-9.7c-0.2,0,0.1-0.7,0.7-1.5c1.4-1.7,0.1-5.9-1.9-5.9c-3.1,0-11.7,10.9-11.7,14.8 c0,1.7,1.8,4.2,3,4.2C206.3,205,207.9,204.1,209.6,203.1z M228.7,188.3c1-1.6,2.1-3.1,2.6-3.4c0.4-0.3,1-2.1,1.3-4.1 c0.5-2.7,0.2-3.6-1.1-4.1c-4-1.6-8.5,3.7-8.5,10c0,3.6,0.3,4.3,2,4.3C226.1,191,227.7,189.8,228.7,188.3z M242.6,180.3 c6.4-6.9,6.9-14.5,0.8-11.2c-4.3,2.3-8.4,10-7,13.4C237.3,184.9,239,184.3,242.6,180.3z M258.7,166.8c2.8-2.6,3.2-7.8,0.6-7.8 c-2.3,0-7.6,6.7-6.9,8.6C253.2,169.7,256,169.3,258.7,166.8z" class="st2"/><path d="M121.9,163.6c-0.2-0.2-2.2-0.6-4.5-0.9c-8.2-1.2-14.5-4.9-21.5-12.8c-8.9-10.1-10.6-12.8-12.9-20 c-4.7-14.7-0.7-32.1,8.8-38.6c6.4-4.3,15.8-5.1,37.7-3.3c10,0.9,13.7,0.8,22.2-0.6c5.6-0.9,11.7-1.4,13.5-1 c4.2,0.8,9,5.1,11.8,10.5c4,8,4.6,24.6,0.9,28.6c-0.5,0.5-0.9,1.7-0.9,2.6c0,0.9-0.9,3.4-1.9,5.6c-1.1,2.1-2.7,5.5-3.7,7.6 c-2.9,6.6-21.1,18.5-32.4,21.1C133,163.8,122.9,164.5,121.9,163.6z M128,134.4c1.4-3.6-0.2-5.9-4.3-6.2c-4.2-0.3-6,1.6-5.1,5.2 C120,139.3,126,139.9,128,134.4z M140.8,136.9c1.9-3,0.7-5.5-2.5-5.3c-1.6,0.1-3.6,0.3-4.5,0.3c-1.2,0.1-1.8,0.9-1.8,2.6 C132,138.8,138.5,140.7,140.8,136.9z M112.5,130.8c4.8-5.7,1.6-12.2-5.7-11.4c-5.1,0.5-6.8,2.1-6.8,6.5 C100,134.2,107.3,137,112.5,130.8z M152.7,129.4c0.3-0.8-0.1-2.3-1-3.1c-1.3-1.3-1.9-1.4-3.1-0.3c-0.9,0.7-1.6,2.1-1.6,3.1 C147,131.5,151.8,131.7,152.7,129.4z" class="st2"/></g></svg>